<svg xmlns="http://www.w3.org/2000/svg" enable-background="new 0 0 50 50" viewBox="0 0 50 50"><path fill="#444445" d="M36.9,49H13.1c-1.7,0-3-1.3-3-3V4c0-1.7,1.3-3,3-3h23.7c1.7,0,3,1.3,3,3v42C39.9,47.7,38.5,49,36.9,49z"/><rect width="26.7" height="34.3" x="11.7" y="7.4" fill="#FFF"/><path fill="#D75548" d="M12,12.4v1.8c0,1.8-1.4,3.3-3.2,3.3S5.6,16,5.6,14.2v-1.8H12z"/><polygon fill="#E9715F" points="12 12.4 5.5 12.4 11.7 7.4 16.1 7.4"/><path fill="#59B1E3" d="M18.5,12.4v1.8c0,1.8-1.5,3.3-3.2,3.3S12,16,12,14.2v-1.8H18.5z"/><polygon fill="#7AC1E1" points="18.5 12.4 12 12.4 16.1 7.4 20.6 7.4"/><path fill="#83BD57" d="M25,12.4v1.8c0,1.8-1.5,3.3-3.3,3.3c-1.8,0-3.2-1.5-3.2-3.3v-1.8H25z"/><polygon fill="#98CB6A" points="25 12.4 18.5 12.4 20.6 7.4 25 7.4"/><path fill="#F5B948" d="M31.5,12.4v1.8c0,1.8-1.5,3.3-3.2,3.3c-1.8,0-3.2-1.5-3.2-3.3v-1.8H31.5z"/><polygon fill="#FFCA67" points="31.5 12.4 25 12.4 25 7.4 29.4 7.4"/><path fill="#E35B9F" d="M38,12.4v1.8c0,0.9-0.4,1.7-1,2.3c-0.6,0.6-1.4,1-2.3,1c-1.8,0-3.2-1.5-3.2-3.3v-1.8H38z"/><polygon fill="#E774AB" points="38 12.4 31.5 12.4 29.4 7.4 33.9 7.4"/><path fill="#D75548" d="M44.5,12.4v1.8c0,1.8-1.5,3.3-3.3,3.3S38,16,38,14.2v-1.8H44.5z"/><polygon fill="#E9715F" points="44.4 12.4 38 12.4 33.9 7.4 38.3 7.4"/><path fill="#696967" d="M29.5 3.9c0 .4-.4.8-.8.8h-7.5c-.4 0-.8-.3-.8-.8 0-.4.3-.8.8-.8h7.5C29.2 3.2 29.5 3.5 29.5 3.9zM27 44.2v2.2c0 .5-.4.9-.9.9h-2.2c-.5 0-.9-.4-.9-.9v-2.2c0-.5.4-.9.9-.9h2.2C26.6 43.4 27 43.8 27 44.2zM31.2 36.4c0 .9-.7 1.6-1.6 1.6-.9 0-1.6-.7-1.6-1.6s.7-1.6 1.6-1.6C30.5 34.8 31.2 35.5 31.2 36.4zM24.4 36.4c0 .9-.7 1.6-1.6 1.6-.9 0-1.6-.7-1.6-1.6s.7-1.6 1.6-1.6C23.7 34.8 24.4 35.5 24.4 36.4z"/><path fill="#E4E4E3" d="M23.5 36.4c0 .4-.3.7-.7.7-.4 0-.7-.3-.7-.7s.3-.7.7-.7C23.2 35.7 23.5 36 23.5 36.4zM30.3 36.4c0 .4-.3.7-.7.7-.4 0-.7-.3-.7-.7s.3-.7.7-.7C30 35.7 30.3 36 30.3 36.4z"/><path fill="#C7C7C7" d="M35.3,23.6c-0.1-0.1-0.2-0.1-0.3-0.1H18.5l-0.3-1c-0.2-0.4-0.6-0.7-1-0.7h-1.2c-0.2,0-0.4,0.2-0.4,0.4
				c0,0.2,0.2,0.4,0.4,0.4h1.2c0.2,0,0.3,0.1,0.3,0.2l0.4,1.2l2.2,9.5c0,0.2,0.2,0.3,0.4,0.3h4.6c0,0,0,0,0,0H32
				c0.2,0,0.3-0.1,0.3-0.3l3-9.5C35.4,23.8,35.4,23.7,35.3,23.6z M34,25.9h-2.2l0.4-1.7h2.4L34,25.9z M33.2,28.4h-2l0.4-1.7h2.2
				L33.2,28.4z M32.5,30.4h-1.8l0.3-1.3h1.9L32.5,30.4z M27.8,32.9l0.2-1.7h1.9l-0.4,1.7H27.8z M19.9,29.1h1.9l0.2,1.3h-1.8
				L19.9,29.1z M25.3,28.4l0-1.7h2.4l-0.2,1.7H25.3z M27.5,29.1l-0.1,1.3h-2l0-1.3H27.5z M28.4,26.6h2.4l-0.4,1.7h-2.2L28.4,26.6z
				 M28.5,25.9l0.2-1.7h2.7L31,25.9H28.5z M27.8,25.9h-2.5l0-1.7h2.7L27.8,25.9z M24.6,25.9h-2.5l-0.2-1.7h2.7L24.6,25.9z
				 M24.6,26.6l0,1.7h-2.2l-0.2-1.7H24.6z M21.7,28.4h-2l-0.4-1.7h2.2L21.7,28.4z M22.5,29.1h2.1l0,1.3h-2L22.5,29.1z M24.7,31.2
				l0,1.7H23l-0.2-1.7H24.7z M25.4,31.2h1.9l-0.2,1.7h-1.7L25.4,31.2z M28.1,30.4l0.1-1.3h2.1L30,30.4H28.1z M21.1,24.2l0.2,1.7
				h-2.2l-0.4-1.7H21.1z M20.4,31.2H22l0.2,1.7h-1.5L20.4,31.2z M31.7,32.9h-1.5l0.4-1.7h1.7L31.7,32.9z"/><path fill="#E9715F" d="M16.7,21.6v1c0,0.1-0.1,0.2-0.2,0.2h-2.3c-0.4,0-0.7-0.3-0.7-0.7s0.3-0.7,0.7-0.7h2.3
				C16.7,21.4,16.7,21.5,16.7,21.6z"/></svg>